<svg width="256" height="157" viewBox="0 0 256 157" fill="none" xmlns="http://www.w3.org/2000/svg">
<path d="M14.1502 9.50038L4.99707 125.534L238.582 143.96L247.735 27.9263L14.1502 9.50038Z" fill="white"/>
<path d="M39.1058 18.4902C33.3894 14.408 26.1318 14.1129 23.3594 14.1715C24.2052 16.8117 26.8337 23.5831 32.55 27.6671C38.2802 31.7595 45.5289 32.0457 48.2971 31.9885C47.4517 29.3493 44.8229 22.5752 39.1058 18.4902Z" fill="#3569FC"/>
<path d="M61.6563 92.325L24.1493 89.3663C23.0411 89.2789 21.9265 89.4106 20.8691 89.7539C19.8118 90.0973 18.8325 90.6455 17.987 91.3673C17.1415 92.0891 16.4466 92.9704 15.9417 93.9608C15.4368 94.9513 15.1319 96.0314 15.0445 97.1397C14.9571 98.2479 15.0888 99.3625 15.4322 100.42C15.7755 101.477 16.3237 102.457 17.0456 103.302C17.7674 104.147 18.6487 104.842 19.6391 105.347C20.6295 105.852 21.7097 106.157 22.8179 106.244L60.3249 109.203C62.5631 109.38 64.7797 108.66 66.4872 107.202C68.1947 105.744 69.2531 103.668 69.4297 101.43C69.6062 99.1916 68.8865 96.9749 67.4287 95.2675C65.9709 93.56 63.8945 92.5015 61.6563 92.325Z" fill="#3569FC"/>
<path d="M238.527 16.6477L28.2368 0.0576595C25.7909 -0.13495 23.3309 0.156099 20.9975 0.914196C18.664 1.67229 16.5027 2.88258 14.637 4.47596C12.7713 6.06935 11.2378 8.01462 10.1239 10.2007C9.00999 12.3868 8.33759 14.7709 8.14509 17.2168L0.0576304 119.668C-0.331113 124.609 1.25836 129.502 4.47658 133.271C7.69479 137.041 12.2783 139.378 17.2192 139.769L227.509 156.359C229.955 156.552 232.415 156.261 234.749 155.503C237.082 154.744 239.243 153.534 241.109 151.941C242.975 150.347 244.508 148.402 245.622 146.216C246.736 144.03 247.408 141.646 247.601 139.2L255.287 41.8246L255.441 39.8351L255.686 36.7394C255.879 34.2935 255.587 31.8335 254.829 29.5001C254.071 27.1666 252.861 25.0054 251.268 23.1397C249.674 21.274 247.729 19.7404 245.543 18.6265C243.357 17.5126 240.973 16.8402 238.527 16.6477ZM232.317 105.786L230.985 122.664C230.741 125.645 229.327 128.409 227.052 130.35C224.777 132.292 221.825 133.253 218.843 133.025L190.71 130.808C187.729 130.565 184.965 129.151 183.024 126.875C181.082 124.6 180.12 121.649 180.349 118.667L181.681 101.788C181.926 98.8073 183.34 96.0446 185.615 94.1033C187.89 92.1619 190.841 91.1999 193.823 91.4271L221.947 93.6464C224.928 93.891 227.691 95.3045 229.634 97.5787C231.576 99.8528 232.541 102.803 232.317 105.786ZM13.1835 96.9844C13.4018 94.2532 14.6945 91.72 16.7782 89.9408C18.8618 88.1615 21.5661 87.2813 24.2978 87.4935L61.8034 90.4541C63.1582 90.5587 64.4792 90.9292 65.6908 91.5446C66.9023 92.16 67.9808 93.008 68.8644 94.0404C69.748 95.0727 70.4196 96.2691 70.8407 97.5611C71.2617 98.8531 71.424 100.215 71.3183 101.57C71.2127 102.925 70.841 104.246 70.2247 105.457C69.6084 106.668 68.7594 107.745 67.7264 108.628C66.6933 109.511 65.4965 110.182 64.2041 110.602C62.9118 111.022 61.5493 111.183 60.1947 111.076L60.1753 111.081L22.6697 108.12C21.3151 108.013 19.995 107.64 18.7848 107.022C17.5747 106.405 16.4982 105.554 15.6171 104.52C14.736 103.485 14.0675 102.287 13.6499 100.994C13.2323 99.7014 13.0739 98.3387 13.1835 96.9844ZM21.2128 13.5027L20.9564 12.4535L22.0353 12.3546C22.4571 12.3093 32.434 11.4136 40.2002 16.9611C47.9665 22.5087 50.3479 32.242 50.4514 32.6491L50.6982 33.7007L49.6217 33.8093C48.0937 33.9229 46.5591 33.9127 45.0327 33.7789C40.1774 33.4947 35.4877 31.9109 31.4543 29.1931C23.6881 23.6455 21.3066 13.9122 21.2128 13.5027Z" fill="#3569FC"/>
<path d="M200.766 116.979L188.577 116.018C187.707 115.951 186.846 116.232 186.184 116.798C185.521 117.365 185.11 118.172 185.042 119.041C184.973 119.911 185.252 120.772 185.818 121.435C186.384 122.099 187.19 122.511 188.059 122.582L200.248 123.543C201.118 123.61 201.979 123.329 202.641 122.763C203.304 122.196 203.715 121.389 203.784 120.52C203.852 119.65 203.573 118.789 203.007 118.125C202.442 117.462 201.636 117.049 200.766 116.979Z" fill="#3569FC"/>
<path d="M223.271 118.755L211.081 117.793C210.212 117.727 209.351 118.008 208.689 118.574C208.027 119.141 207.617 119.948 207.548 120.817C207.479 121.686 207.758 122.546 208.324 123.21C208.889 123.874 209.694 124.286 210.563 124.357L222.753 125.318C223.622 125.385 224.482 125.104 225.144 124.537C225.806 123.97 226.217 123.164 226.285 122.295C226.354 121.426 226.075 120.565 225.51 119.901C224.945 119.238 224.139 118.825 223.271 118.755Z" fill="#3569FC"/>
<path d="M201.432 108.54L189.242 107.579C188.373 107.512 187.513 107.793 186.851 108.36C186.189 108.927 185.778 109.733 185.71 110.602C185.641 111.471 185.92 112.332 186.485 112.996C187.05 113.659 187.856 114.072 188.725 114.142L200.914 115.104C201.784 115.171 202.644 114.89 203.307 114.323C203.97 113.757 204.381 112.95 204.449 112.081C204.518 111.211 204.239 110.35 203.673 109.686C203.107 109.022 202.301 108.61 201.432 108.54Z" fill="#3569FC"/>
<path d="M223.936 110.315L211.746 109.354C210.877 109.287 210.016 109.567 209.354 110.134C208.691 110.701 208.28 111.508 208.212 112.377C208.143 113.247 208.422 114.108 208.988 114.771C209.554 115.435 210.359 115.847 211.229 115.917L223.419 116.879C224.288 116.946 225.149 116.665 225.811 116.099C226.474 115.532 226.885 114.725 226.954 113.856C227.022 112.986 226.743 112.125 226.177 111.461C225.612 110.798 224.806 110.385 223.936 110.315Z" fill="#3569FC"/>
<path d="M202.098 100.101L189.908 99.1396C189.038 99.0726 188.178 99.3533 187.515 99.9201C186.852 100.487 186.442 101.294 186.373 102.163C186.304 103.032 186.584 103.894 187.149 104.557C187.715 105.221 188.521 105.633 189.39 105.703L201.58 106.665C202.449 106.731 203.309 106.45 203.972 105.884C204.634 105.317 205.044 104.51 205.113 103.641C205.181 102.772 204.902 101.912 204.337 101.248C203.772 100.584 202.967 100.172 202.098 100.101Z" fill="#3569FC"/>
<path d="M224.602 101.876L212.412 100.915C211.543 100.848 210.683 101.129 210.021 101.696C209.359 102.263 208.948 103.069 208.88 103.938C208.811 104.807 209.09 105.668 209.655 106.332C210.22 106.995 211.026 107.408 211.895 107.479L224.084 108.44C224.953 108.507 225.814 108.226 226.476 107.659C227.138 107.092 227.548 106.286 227.617 105.417C227.686 104.548 227.407 103.687 226.841 103.023C226.276 102.36 225.471 101.947 224.602 101.876Z" fill="#3569FC"/>
<path d="M6.01923 49.5428L5.86255 51.5374L252.715 70.9288L252.872 68.9342L6.01923 49.5428Z" fill="white"/>
<path d="M255.441 39.8348L255.286 41.8248L246.695 41.1508L155.162 33.9608L155.327 31.9688L246.85 39.1608L255.441 39.8348Z" fill="#111111"/>
</svg>
