<svg width="216" height="84" viewBox="0 0 216 84" fill="none" xmlns="http://www.w3.org/2000/svg">
<path d="M184.945 26C192.125 26 197.945 20.1797 197.945 13C197.945 5.8203 192.125 0 184.945 0C177.766 0 171.945 5.8203 171.945 13C171.945 20.1797 177.766 26 184.945 26Z" fill="#2A85FF"/>
<path d="M183.657 17.9592C183.365 17.9598 183.08 17.8652 182.846 17.6898L182.831 17.6789L179.776 15.3398C179.634 15.2315 179.515 15.0964 179.425 14.942C179.336 14.7876 179.277 14.6171 179.254 14.4401C179.23 14.2632 179.242 14.0833 179.287 13.9108C179.333 13.7383 179.413 13.5765 179.522 13.4348C179.63 13.2931 179.766 13.1742 179.92 13.0849C180.075 12.9956 180.246 12.9377 180.423 12.9145C180.6 12.8913 180.779 12.9033 180.952 12.9497C181.124 12.9961 181.286 13.076 181.427 13.185L183.406 14.7023L188.082 8.60368C188.191 8.46223 188.326 8.34353 188.48 8.25435C188.635 8.16517 188.805 8.10727 188.982 8.08394C189.159 8.06061 189.338 8.07232 189.51 8.11839C189.683 8.16447 189.844 8.24403 189.985 8.35249C190.271 8.57178 190.458 8.89585 190.505 9.25261C190.552 9.60937 190.456 9.97024 190.237 10.2561L184.737 17.4295C184.61 17.5948 184.446 17.7286 184.259 17.8205C184.072 17.9123 183.866 17.9598 183.657 17.9592Z" fill="white"/>
<path d="M133.705 21.4004H9.51874C6.9942 21.4004 4.57308 20.3975 2.78796 18.6124C1.00284 16.8273 0 14.4061 0 11.8816C0 9.35705 1.00284 6.93591 2.78796 5.15079C4.57308 3.36567 6.9942 2.36279 9.51874 2.36279H133.705C136.229 2.36279 138.65 3.36567 140.436 5.15079C142.221 6.93591 143.224 9.35705 143.224 11.8816C143.224 14.4061 142.221 16.8273 140.436 18.6124C138.65 20.3975 136.229 21.4004 133.705 21.4004Z" fill="#CCCCCC"/>
<path d="M193.945 55C201.125 55 206.945 49.1797 206.945 42C206.945 34.8203 201.125 29 193.945 29C186.766 29 180.945 34.8203 180.945 42C180.945 49.1797 186.766 55 193.945 55Z" fill="#2A85FF"/>
<path d="M142.705 50.4004H18.5187C15.9942 50.4004 13.5731 49.3975 11.788 47.6124C10.0028 45.8273 9 43.4061 9 40.8816C9 38.3571 10.0028 35.9359 11.788 34.1508C13.5731 32.3657 15.9942 31.3628 18.5187 31.3628H142.705C145.229 31.3628 147.65 32.3657 149.436 34.1508C151.221 35.9359 152.224 38.3571 152.224 40.8816C152.224 43.4061 151.221 45.8273 149.436 47.6124C147.65 49.3975 145.229 50.4004 142.705 50.4004Z" fill="#CCCCCC"/>
<path d="M202.945 84C210.125 84 215.945 78.1797 215.945 71C215.945 63.8203 210.125 58 202.945 58C195.766 58 189.945 63.8203 189.945 71C189.945 78.1797 195.766 84 202.945 84Z" fill="#2A85FF"/>
<path d="M151.705 79.4004H27.5187C24.9942 79.4004 22.5731 78.3975 20.788 76.6124C19.0028 74.8273 18 72.4061 18 69.8816C18 67.3571 19.0028 64.9359 20.788 63.1508C22.5731 61.3657 24.9942 60.3628 27.5187 60.3628H151.705C154.229 60.3628 156.65 61.3657 158.436 63.1508C160.221 64.9359 161.224 67.3571 161.224 69.8816C161.224 72.4061 160.221 74.8273 158.436 76.6124C156.65 78.3975 154.229 79.4004 151.705 79.4004Z" fill="#CCCCCC"/>
<path d="M193.327 47.116C193.167 47.116 193.051 47.08 192.979 47.008C192.907 46.944 192.871 46.836 192.871 46.684V46.132C191.839 46.044 191.079 45.832 190.591 45.496C190.487 45.424 190.435 45.36 190.435 45.304C190.435 45.272 190.455 45.224 190.495 45.16L190.879 44.536C190.927 44.464 190.971 44.428 191.011 44.428C191.051 44.428 191.103 44.448 191.167 44.488C191.495 44.664 191.855 44.804 192.247 44.908C192.647 45.004 193.043 45.052 193.435 45.052C194.003 45.052 194.411 44.956 194.659 44.764C194.915 44.572 195.043 44.288 195.043 43.912C195.043 43.656 194.983 43.452 194.863 43.3C194.743 43.148 194.571 43.02 194.347 42.916C194.123 42.804 193.755 42.656 193.243 42.472C192.483 42.2 191.871 41.872 191.407 41.488C190.943 41.096 190.711 40.58 190.711 39.94C190.711 39.308 190.899 38.808 191.275 38.44C191.651 38.072 192.183 37.84 192.871 37.744V37.144C192.871 36.992 192.907 36.88 192.979 36.808C193.051 36.736 193.167 36.7 193.327 36.7H193.855C194.015 36.7 194.131 36.736 194.203 36.808C194.275 36.88 194.311 36.992 194.311 37.144V37.708C194.735 37.732 195.099 37.792 195.403 37.888C195.707 37.984 195.979 38.12 196.219 38.296C196.315 38.368 196.363 38.432 196.363 38.488C196.363 38.544 196.347 38.592 196.315 38.632L195.943 39.232C195.895 39.304 195.851 39.34 195.811 39.34C195.779 39.34 195.731 39.32 195.667 39.28C195.443 39.128 195.163 39.012 194.827 38.932C194.499 38.844 194.139 38.8 193.747 38.8C193.243 38.8 192.863 38.892 192.607 39.076C192.359 39.252 192.235 39.544 192.235 39.952C192.235 40.184 192.287 40.372 192.391 40.516C192.495 40.652 192.639 40.768 192.823 40.864C193.007 40.952 193.287 41.068 193.663 41.212L194.167 41.404C194.783 41.644 195.255 41.872 195.583 42.088C195.919 42.296 196.167 42.548 196.327 42.844C196.487 43.132 196.567 43.504 196.567 43.96C196.567 44.544 196.375 45.028 195.991 45.412C195.607 45.796 195.047 46.036 194.311 46.132V46.684C194.311 46.836 194.275 46.944 194.203 47.008C194.139 47.08 194.023 47.116 193.855 47.116H193.327Z" fill="white"/>
<path d="M199.822 72C199.652 72 199.529 71.9627 199.454 71.888C199.39 71.8133 199.358 71.6907 199.358 71.52V70.928C199.358 70.7573 199.39 70.6347 199.454 70.56C199.529 70.4853 199.652 70.448 199.822 70.448H205.182C205.342 70.448 205.46 70.4907 205.534 70.576C205.609 70.6507 205.646 70.768 205.646 70.928V71.52C205.646 71.68 205.609 71.8027 205.534 71.888C205.46 71.9627 205.342 72 205.182 72H199.822Z" fill="white"/>
</svg>
