<svg width="272" height="160" viewBox="0 0 272 160" fill="none" xmlns="http://www.w3.org/2000/svg">
<path d="M213 40C213 43.3137 210.314 46 207 46H6C2.6863 46 0 43.3137 0 40V6C0 2.68629 2.68629 0 6 0H207C210.314 0 213 2.68629 213 6V40Z" fill="white"/>
<path d="M27.5 34C33.8513 34 39 28.8513 39 22.5C39 16.1487 33.8513 11 27.5 11C21.1487 11 16 16.1487 16 22.5C16 28.8513 21.1487 34 27.5 34Z" fill="#2a85ff"/>
<path d="M54.9198 15C54.4106 15 53.9223 15.2634 53.5623 15.7322C53.2022 16.2011 53 16.837 53 17.5C53 18.163 53.2022 18.7989 53.5623 19.2678C53.9223 19.7366 54.4106 20 54.9198 20H195.085C195.593 19.9984 196.08 19.7344 196.439 19.2657C196.798 18.797 197 18.162 197 17.5C197 16.838 196.798 16.203 196.439 15.7343C196.08 15.2657 195.593 15.0016 195.085 15H54.9198Z" fill="#3F3D56"/>
<path d="M54.9144 27C54.4077 26.9986 53.9214 27.2607 53.5624 27.7285C53.2034 28.1964 53.0011 28.8317 53 29.4947C52.9989 30.1578 53.1992 30.7942 53.5567 31.264C53.9142 31.7339 54.3997 31.9986 54.9063 32H143.086C143.338 32.0005 143.586 31.9363 143.819 31.8109C144.051 31.6855 144.262 31.5015 144.439 31.2692C144.617 31.037 144.758 30.7613 144.854 30.4577C144.95 30.1541 145 29.8287 145 29.5C145 29.1713 144.95 28.8459 144.854 28.5423C144.758 28.2387 144.617 27.963 144.439 27.7308C144.262 27.4986 144.051 27.3145 143.819 27.1891C143.586 27.0637 143.338 26.9995 143.086 27H54.9144Z" fill="#3F3D56"/>
<path d="M213 40C213 43.3137 210.314 46 207 46H6C2.6863 46 0 43.3137 0 40V6C0 2.68629 2.68629 0 6 0H207C210.314 0 213 2.68629 213 6V40ZM3.25191 36.7143C3.25191 40.028 5.9382 42.7143 9.25191 42.7143H203.748C207.062 42.7143 209.748 40.028 209.748 36.7143V9.28571C209.748 5.972 207.062 3.28571 203.748 3.28571H9.25191C5.93821 3.28571 3.25191 5.97201 3.25191 9.28571V36.7143Z" fill="#CCCCCC"/>
<path d="M213 97C213 100.314 210.314 103 207 103H6C2.6863 103 0 100.314 0 97V64C0 60.6863 2.68629 58 6 58H207C210.314 58 213 60.6863 213 64V97Z" fill="white"/>
<path d="M27.5 92C33.8513 92 39 86.8513 39 80.5C39 74.1487 33.8513 69 27.5 69C21.1487 69 16 74.1487 16 80.5C16 86.8513 21.1487 92 27.5 92Z" fill="#E6E6E6"/>
<path d="M54.9198 72C54.4106 72 53.9223 72.2107 53.5623 72.5858C53.2022 72.9608 53 73.4696 53 74C53 74.5304 53.2022 75.0391 53.5623 75.4142C53.9223 75.7893 54.4106 76 54.9198 76H195.085C195.593 75.9987 196.08 75.7875 196.439 75.4125C196.798 75.0376 197 74.5296 197 74C197 73.4704 196.798 72.9624 196.439 72.5875C196.08 72.2125 195.593 72.0013 195.085 72H54.9198Z" fill="#E6E6E6"/>
<path d="M54.9144 84C54.4077 83.9989 53.9214 84.2085 53.5624 84.5828C53.2034 84.9571 53.0011 85.4654 53 85.9958C52.9989 86.5262 53.1992 87.0354 53.5567 87.4112C53.9142 87.7871 54.3997 87.9989 54.9063 88H143.086C143.338 88.0004 143.586 87.949 143.819 87.8487C144.051 87.7484 144.262 87.6012 144.439 87.4154C144.617 87.2296 144.758 87.009 144.854 86.7661C144.95 86.5233 145 86.2629 145 86C145 85.7371 144.95 85.4767 144.854 85.2339C144.758 84.991 144.617 84.7704 144.439 84.5846C144.262 84.3988 144.051 84.2516 143.819 84.1513C143.586 84.051 143.338 83.9996 143.086 84H54.9144Z" fill="#E6E6E6"/>
<path d="M213 97C213 100.314 210.314 103 207 103H6C2.6863 103 0 100.314 0 97V64C0 60.6863 2.68629 58 6 58H207C210.314 58 213 60.6863 213 64V97ZM3.25191 93.7857C3.25191 97.0994 5.9382 99.7857 9.25191 99.7857H203.748C207.062 99.7857 209.748 97.0994 209.748 93.7857V67.2143C209.748 63.9006 207.062 61.2143 203.748 61.2143H9.25191C5.93821 61.2143 3.25191 63.9006 3.25191 67.2143V93.7857Z" fill="#E6E6E6"/>
<path d="M213 154C213 157.314 210.314 160 207 160H6C2.6863 160 0 157.314 0 154V120C0 116.686 2.68629 114 6 114H207C210.314 114 213 116.686 213 120V154Z" fill="white"/>
<path d="M27.5 149C33.8513 149 39 143.851 39 137.5C39 131.149 33.8513 126 27.5 126C21.1487 126 16 131.149 16 137.5C16 143.851 21.1487 149 27.5 149Z" fill="#E6E6E6"/>
<path d="M54.9198 129C54.4106 129 53.9223 129.263 53.5623 129.732C53.2022 130.201 53 130.837 53 131.5C53 132.163 53.2022 132.799 53.5623 133.268C53.9223 133.737 54.4106 134 54.9198 134H195.085C195.593 133.998 196.08 133.734 196.439 133.266C196.798 132.797 197 132.162 197 131.5C197 130.838 196.798 130.203 196.439 129.734C196.08 129.266 195.593 129.002 195.085 129H54.9198Z" fill="#E6E6E6"/>
<path d="M54.9144 141C54.4077 140.999 53.9214 141.209 53.5624 141.583C53.2034 141.957 53.0011 142.465 53 142.996C52.9989 143.526 53.1992 144.035 53.5567 144.411C53.9142 144.787 54.3997 144.999 54.9063 145H143.086C143.338 145 143.586 144.949 143.819 144.849C144.051 144.748 144.262 144.601 144.439 144.415C144.617 144.23 144.758 144.009 144.854 143.766C144.95 143.523 145 143.263 145 143C145 142.737 144.95 142.477 144.854 142.234C144.758 141.991 144.617 141.77 144.439 141.585C144.262 141.399 144.051 141.252 143.819 141.151C143.586 141.051 143.338 141 143.086 141H54.9144Z" fill="#E6E6E6"/>
<path d="M213 154C213 157.314 210.314 160 207 160H6C2.6863 160 0 157.314 0 154V120C0 116.686 2.68629 114 6 114H207C210.314 114 213 116.686 213 120V154ZM3.25191 150.714C3.25191 154.028 5.9382 156.714 9.25191 156.714H203.748C207.062 156.714 209.748 154.028 209.748 150.714V123.286C209.748 119.972 207.062 117.286 203.748 117.286H9.25191C5.93821 117.286 3.25191 119.972 3.25191 123.286V150.714Z" fill="#E6E6E6"/>
<path d="M253.5 41C263.717 41 272 32.7173 272 22.5C272 12.2827 263.717 4 253.5 4C243.283 4 235 12.2827 235 22.5C235 32.7173 243.283 41 253.5 41Z" fill="#2a85ff"/>
<path d="M251.643 30L246 23.1559L249.282 20.7481L251.954 23.9888L260.981 15L264 17.6978L251.643 30Z" fill="white"/>
</svg>
